<svg xmlns="http://www.w3.org/2000/svg" xmlns:xlink="http://www.w3.org/1999/xlink" version="1.1" width="800" height="800" viewBox="0 0 800 800"><defs><clipPath id="master_svg0_1_0"><rect x="0" y="0" width="800" height="800" rx="0"/></clipPath><clipPath id="master_svg1_1_080"><rect x="80" y="80" width="320" height="320" rx="0"/></clipPath><clipPath id="master_svg2_1_084"><rect x="382" y="80" width="320" height="320" rx="0"/></clipPath></defs><g style="mix-blend-mode:passthrough"><g style="mix-blend-mode:passthrough" clip-path="url(#master_svg0_1_0)"><g clip-path="url(#master_svg1_1_080)"><g><path d="M370,100L290,100C284.477,100,280,104.47715,280,110L280,212.188L246.644,182.525C242.855,179.15699999999998,237.145,179.15699999999998,233.356,182.525L200,212.188L200,110C200,104.47715,195.5229,100,190,100L110,100C104.47715,100,100,104.47715,100,110L100,370C100,375.523,104.47715,380,110,380L138.5938,380C148.1484,380.004,157.38819999999998,376.583,164.6375,370.359L164.9656,370.078L240,303.378L314.831,369.897C322.147,376.405,331.599,380,341.394,380L370,380C375.523,380,380,375.523,380,370L380,110C380,104.47715,375.523,100,370,100ZM340,120L360,120L360,337.731L341.703,321.481C313.221,296.20500000000004,289.663,265.874,272.222,232.022L323.356,277.475C326.3,280.091,330.505,280.73699999999997,334.097,279.123C337.68899999999996,277.51,340,273.93899999999996,340,270L340,120ZM300,120L320,120L320,247.731L300,229.953L300,120ZM138.5938,360L120,360L120,120L140,120L140,358.866C140,359.228,140,359.591,140.04059999999998,359.947C139.55939999999998,359.981,139.0781,360,138.5938,360ZM233.372,282.5L233.356,282.5L160,347.731L160,120L180,120L180,284.44399999999996C179.9952,288.38,182.30020000000002,291.953,185.8885,293.572C189.4767,295.19,193.6806,294.553,196.62810000000002,291.94399999999996L196.6438,291.94399999999996L226.644,265.269Q230.981,273.26599999999996,235.731,280.978C234.873,281.384,234.078,281.90999999999997,233.369,282.541L233.372,282.5ZM341.406,360C336.509,360,331.783,358.202,328.125,354.947L310.703,339.469C281.198,313.291,256.985,281.7,239.375,246.406L238.55,244.759C236.08,239.82,230.074,237.818,225.13400000000001,240.288C224.341,240.684,223.606,241.185,222.947,241.778L200,262.188L200,238.934L236.891,206.144L252.5,237.353C271.244,274.922,297.015,308.549,328.419,336.416L354.947,360L341.406,360Z"  fill-opacity="1"/></g></g><g clip-path="url(#master_svg2_1_084)"><g><path d="M652,100L572,100C566.477,100,562,104.47715,562,110L562,180L522,180L522,110C522,104.47715,517.5229,100,512,100L432,100C426.47715,100,422,104.47715,422,110L422,370C422,375.523,426.47715,380,432,380L512,380C517.5229,380,522,375.523,522,370L522,280L562,280L562,370C562,375.523,566.477,380,572,380L652,380C657.523,380,662,375.523,662,370L662,110C662,104.47715,657.523,100,652,100ZM602,120L602,180L582,180L582,120L602,120ZM442,120L462,120L462,360L442,360L442,120ZM512,260C506.4771,260,502,264.477,502,270L502,360L482,360L482,120L502,120L502,220C502.012,231.041,510.9593,239.988,522,240L552,240C557.523,240,562,244.477,562,250L562,260L512,260ZM582,250C582.0029999999999,246.593,581.422,243.211,580.284,240L602,240L602,360L582,360L582,250ZM642,360L622,360L622,240C621.988,228.959,613.0409999999999,220.012,602,220L522,220L522,200L612,200C617.523,200,622,195.5229,622,190L622,120L642,120L642,360Z" fill-opacity="1"/></g></g><g><path d="M285.714,400.000419616C316.041,399.9185754,345.139,411.9725,366.525,433.4754C377.181,444.0727,385.516,456.5644,391.204,470.1612C408.468,428.9507,449.183,400.000419616,496.661,400.000419616L588.0889999999999,400.000419616C618.416,399.9185754,647.514,411.9725,668.9,433.4754C690.403,454.8602,702.457,483.9593,702.375,514.2860000000001L702.375,605.7139999999999C702.375,668.8330000000001,651.207,720,588.0889999999999,720L496.661,720C449.168,720,408.441,691.031,391.187,649.798C373.934,691.031,333.207,720,285.714,720L194.286,720C131.1674,720,80,668.8330000000001,80,605.7139999999999L80,514.2860000000001C80,451.1678,131.1674,400.000419616,194.286,400.000419616L285.714,400.000419616ZM194.286,422.8575C143.8713,422.8575,102.8571,463.8718,102.8571,514.2860000000001L102.8571,571.429C102.8571,615.539,138.7463,651.429,182.857,651.429L240,651.429C257.964,651.412,274.25800000000004,640.889,281.664,624.5219999999999C275.756,627.198,269.34299999999996,628.579,262.85699999999997,628.572L194.286,628.572C156.4749,628.572,125.7142,597.811,125.7142,560L125.7142,525.715C125.7142,481.5318,161.53140000000002,445.7146,205.714,445.7146L297.14300000000003,445.7146C323.336,445.6416,348.556,455.6363,367.589,473.6325C352.6,443.5718,321.53200000000004,422.8575,285.714,422.8575L194.286,422.8575ZM496.661,422.8575C446.246,422.8575,405.232,463.8718,405.232,514.2860000000001L405.232,571.429C405.232,615.539,441.121,651.429,485.232,651.429L542.375,651.429C560.3389999999999,651.412,576.633,640.889,584.039,624.5219999999999C578.131,627.198,571.7180000000001,628.579,565.232,628.572L496.661,628.572C458.85,628.572,428.089,597.811,428.089,560L428.089,525.715C428.089,481.5318,463.906,445.7146,508.089,445.7146L599.518,445.7146C625.711,445.6416,650.931,455.6363,669.964,473.6325C654.975,443.5718,623.907,422.8575,588.0889999999999,422.8575L496.661,422.8575ZM326.368,687.5889999999999C356.428,672.6,377.142,641.532,377.142,605.7139999999999L377.142,548.572C377.142,504.461,341.253,468.5718,297.14300000000003,468.5718L205.714,468.5718C174.207,468.5718,148.5713,494.2074,148.5713,525.715L148.5713,560C148.5885,577.965,159.1113,594.259,175.4784,601.664C172.8023,595.756,171.4214,589.343,171.4284,582.857L171.4284,537.143C171.45600000000002,511.907,191.90699999999998,491.45640000000003,217.143,491.4289L285.714,491.4289C323.525,491.4289,354.285,522.19,354.285,560L354.285,617.143C354.358,643.337,344.364,668.557,326.368,687.5889999999999ZM628.743,687.5889999999999C658.803,672.6,679.517,641.532,679.517,605.7139999999999L679.517,548.572C679.517,504.461,643.628,468.5718,599.518,468.5718L508.089,468.5718C476.582,468.5718,450.946,494.2074,450.946,525.715L450.946,560C450.963,577.965,461.486,594.259,477.853,601.664C475.177,595.756,473.796,589.343,473.803,582.857L473.803,537.143C473.831,511.907,494.282,491.45640000000003,519.518,491.4289L588.0889999999999,491.4289C625.9,491.4289,656.66,522.19,656.66,560L656.66,617.143C656.733,643.337,646.739,668.557,628.743,687.5889999999999ZM194.286,537.143L194.286,582.857C194.299,595.475,204.525,605.701,217.143,605.7139999999999L262.85699999999997,605.7139999999999C275.475,605.701,285.7,595.475,285.714,582.857L285.714,537.143C285.7,524.525,275.475,514.3,262.85699999999997,514.2860000000001L217.143,514.2860000000001C204.525,514.3,194.299,524.525,194.286,537.143ZM496.661,537.143L496.661,582.857C496.674,595.475,506.9,605.701,519.518,605.7139999999999L565.232,605.7139999999999C577.85,605.701,588.075,595.475,588.0889999999999,582.857L588.0889999999999,537.143C588.075,524.525,577.85,514.3,565.232,514.2860000000001L519.518,514.2860000000001C506.9,514.3,496.674,524.525,496.661,537.143ZM112.41069999999999,646.3679999999999C127.3999,676.429,158.4678,697.143,194.286,697.143L251.428,697.143C295.539,697.143,331.428,661.254,331.428,617.143L331.428,560C331.411,542.0360000000001,320.88800000000003,525.742,304.52099999999996,518.336C307.197,524.244,308.578,530.657,308.571,537.143L308.571,605.7139999999999C308.571,643.525,277.81,674.2860000000001,240,674.2860000000001L182.857,674.2860000000001C156.6635,674.3589999999999,131.4434,664.364,112.41069999999999,646.3679999999999ZM414.786,646.3679999999999C429.775,676.429,460.843,697.143,496.661,697.143L553.803,697.143C597.914,697.143,633.803,661.254,633.803,617.143L633.803,560C633.786,542.0360000000001,623.263,525.742,606.896,518.336C609.572,524.244,610.953,530.657,610.946,537.143L610.946,605.7139999999999C610.946,643.525,580.185,674.2860000000001,542.375,674.2860000000001L485.232,674.2860000000001C459.039,674.3589999999999,433.818,664.364,414.786,646.3679999999999Z" fill-rule="evenodd" fill-opacity="1"/></g></g></g></svg>